<svg xmlns="http://www.w3.org/2000/svg" viewBox="0 0 512 512" role="img" aria-labelledby="title desc">
  <title id="title">Moodist App Icon</title>
  <desc id="desc">Square icon for Moodist progressive web app</desc>
  <defs>
    <linearGradient id="bg" x1="0" x2="1" y1="0" y2="1">
      <stop offset="0%" stop-color="#18181b" />
      <stop offset="100%" stop-color="#09090b" />
    </linearGradient>
    <linearGradient id="wave" x1="0" x2="1" y1="0" y2="0">
      <stop offset="0%" stop-color="#a78bfa" />
      <stop offset="100%" stop-color="#22d3ee" />
    </linearGradient>
  </defs>

  <rect width="512" height="512" rx="96" fill="url(#bg)" />

  <path d="M76 314c18 0 27-10 35-31 10-27 19-45 46-45 28 0 37 20 45 45 7 21 14 31 31 31 18 0 27-10 35-31 10-27 19-45 46-45 28 0 37 20 45 45 7 21 14 31 31 31" fill="none" stroke="url(#wave)" stroke-width="24" stroke-linecap="round" stroke-linejoin="round"/>

  <circle cx="256" cy="190" r="60" fill="none" stroke="#f4f4f5" stroke-width="16" />
  <circle cx="256" cy="190" r="20" fill="#f4f4f5" />
</svg>
