<svg xmlns="http://www.w3.org/2000/svg" viewBox="0 0 512 512" role="img" aria-labelledby="title desc">
  <title id="title">Moodist</title>
  <desc id="desc">Moodist ambient sounds icon</desc>
  <defs>
    <linearGradient id="bg" x1="0" x2="1" y1="0" y2="1">
      <stop offset="0%" stop-color="#18181b" />
      <stop offset="100%" stop-color="#09090b" />
    </linearGradient>
    <linearGradient id="wave" x1="0" x2="1" y1="0" y2="0">
      <stop offset="0%" stop-color="#a78bfa" />
      <stop offset="100%" stop-color="#22d3ee" />
    </linearGradient>
  </defs>

  <rect width="512" height="512" rx="120" fill="url(#bg)" />

  <path d="M84 318c18 0 26-10 34-30 10-26 19-44 45-44 27 0 36 20 44 44 7 20 14 30 30 30 17 0 25-10 33-30 10-26 19-44 45-44 27 0 35 20 43 44 7 20 13 30 31 30" fill="none" stroke="url(#wave)" stroke-width="26" stroke-linecap="round" stroke-linejoin="round"/>

  <circle cx="256" cy="196" r="62" fill="none" stroke="#f4f4f5" stroke-width="18" />
  <circle cx="256" cy="196" r="22" fill="#f4f4f5" />
</svg>
